<svg xmlns="http://www.w3.org/2000/svg" viewBox="0 0 60 60">
  <defs>
    <linearGradient id="logoGrad" x1="0%" y1="0%" x2="100%" y2="100%">
      <stop offset="0%" stop-color="#003399"/>
      <stop offset="100%" stop-color="#001F5B"/>
    </linearGradient>
  </defs>
  <!-- Background circle -->
  <circle cx="30" cy="30" r="28" fill="url(#logoGrad)"/>
  <!-- Car body -->
  <path d="M12 32 L16 25 L24 23 L36 23 L44 25 L48 32 L48 38 L12 38 Z" fill="#FFC300"/>
  <!-- Car windows -->
  <path d="M18 26 L22 24 L34 24 L40 26 L36 31 L20 31 Z" fill="#E8F0FE" opacity="0.9"/>
  <!-- Wheels -->
  <circle cx="18" cy="38" r="5" fill="#222"/>
  <circle cx="18" cy="38" r="2.5" fill="#555"/>
  <circle cx="42" cy="38" r="5" fill="#222"/>
  <circle cx="42" cy="38" r="2.5" fill="#555"/>
  <!-- Book below -->
  <rect x="20" y="44" width="20" height="10" rx="1.5" fill="#FFF"/>
  <line x1="30" y1="44" x2="30" y2="54" stroke="#003399" stroke-width="1"/>
  <line x1="23" y1="47" x2="28" y2="47" stroke="#003399" stroke-width="0.8"/>
  <line x1="23" y1="49" x2="27" y2="49" stroke="#003399" stroke-width="0.8"/>
  <line x1="32" y1="47" x2="37" y2="47" stroke="#003399" stroke-width="0.8"/>
  <line x1="32" y1="49" x2="36" y2="49" stroke="#003399" stroke-width="0.8"/>
</svg>
