<svg xmlns="http://www.w3.org/2000/svg" viewBox="0 0 200 200">
  <defs>
    <clipPath id="tc"><circle cx="100" cy="100" r="98"/></clipPath>
  </defs>
  <circle cx="100" cy="100" r="98" fill="#001F5B"/>
  <g clip-path="url(#tc)">
    <ellipse cx="100" cy="210" rx="75" ry="55" fill="#FFC300"/>
    <rect x="85" y="148" width="30" height="22" rx="10" fill="#E8C39E"/>
    <ellipse cx="100" cy="108" rx="40" ry="46" fill="#F2D0A4"/>
    <ellipse cx="100" cy="72" rx="42" ry="32" fill="#3A2A1A"/>
    <rect x="58" y="68" width="84" height="14" rx="6" fill="#3A2A1A"/>
    <rect x="66" y="100" width="26" height="18" rx="9" fill="none" stroke="#FFF" stroke-width="2.5"/>
    <rect x="108" y="100" width="26" height="18" rx="9" fill="none" stroke="#FFF" stroke-width="2.5"/>
    <line x1="92" y1="109" x2="108" y2="109" stroke="#FFF" stroke-width="2.5"/>
    <line x1="66" y1="107" x2="56" y2="104" stroke="#FFF" stroke-width="2.5"/>
    <line x1="134" y1="107" x2="144" y2="104" stroke="#FFF" stroke-width="2.5"/>
    <circle cx="79" cy="109" r="3.5" fill="#1A1A2E"/>
    <circle cx="121" cy="109" r="3.5" fill="#1A1A2E"/>
    <circle cx="80" cy="108" r="1.2" fill="#FFF"/>
    <circle cx="122" cy="108" r="1.2" fill="#FFF"/>
    <line x1="72" y1="93" x2="88" y2="91" stroke="#3A2A1A" stroke-width="2.5" stroke-linecap="round"/>
    <line x1="112" y1="91" x2="128" y2="93" stroke="#3A2A1A" stroke-width="2.5" stroke-linecap="round"/>
    <path d="M88 128 Q100 136 112 128" fill="none" stroke="#C08060" stroke-width="2.5" stroke-linecap="round"/>
    <rect x="92" y="162" width="16" height="30" fill="#001F5B" rx="3"/>
    <polygon points="92,192 100,200 108,192" fill="#001F5B"/>
    <line x1="75" y1="170" x2="125" y2="170" stroke="#FFF" stroke-width="1.5" opacity="0.5"/>
  </g>
</svg>
